<svg width="78" height="78" viewBox="0 0 78 78" fill="none" xmlns="http://www.w3.org/2000/svg">
<path d="M67.5 58.75H57.5V47.5H67.5V58.75Z" fill="#D2CBFF"/>
<path d="M67.5 43.75H57.5V32.5H67.5V43.75Z" fill="#D2CBFF"/>
<path d="M20 58.75H10V47.5H20V58.75Z" fill="#D2CBFF"/>
<path d="M20 43.75H10V32.5H20V43.75Z" fill="#D2CBFF"/>
<path d="M20 76.25H10V65H20V76.25Z" fill="#D2CBFF"/>
<path d="M45 58.75H32.5V45H45V58.75Z" fill="#D2CBFF"/>
<path d="M45 41.25H32.5V27.5H45V41.25Z" fill="#D2CBFF"/>
<path d="M67.5 76.25H57.5V65H67.5V76.25Z" fill="#D2CBFF"/>
<path d="M45 76.25H32.5V62.5H45V76.25Z" fill="#D2CBFF"/>
<path d="M72.5 75V30H76.5588L71.0025 5H65V3.75C65 1.6825 63.3175 0 61.25 0H58.75C56.6825 0 55 1.6825 55 3.75V5H22.5V3.75C22.5 1.6825 20.8175 0 18.75 0H16.25C14.1825 0 12.5 1.6825 12.5 3.75V5H6.4975L0.94125 30H5V75H0V77.5H77.5V75H72.5ZM7.5 45H22.5V57.5H7.5V45ZM70 57.5H55V45H70V57.5ZM22.8512 22.5L24.7262 15H52.7738L54.6488 22.5H22.8512ZM47.5 57.5H30V42.5H47.5V57.5ZM47.5 40H30V25H47.5V40ZM25 25H27.5V75H25V25ZM30 60H47.5V75H30V60ZM50 25H52.5V75H50V25ZM55 60H70V75H55V60ZM70 42.5H55V30H70V42.5ZM57.5 3.75C57.5 3.06125 58.0612 2.5 58.75 2.5H61.25C61.9388 2.5 62.5 3.06125 62.5 3.75V8.75C62.5 9.43875 61.9388 10 61.25 10H58.75C58.0612 10 57.5 9.43875 57.5 8.75V3.75ZM15 3.75C15 3.06125 15.5612 2.5 16.25 2.5H18.75C19.4387 2.5 20 3.06125 20 3.75V8.75C20 9.43875 19.4387 10 18.75 10H16.25C15.5612 10 15 9.43875 15 8.75V3.75ZM8.5025 7.5H12.5V8.75C12.5 10.8175 14.1825 12.5 16.25 12.5H18.75C20.8175 12.5 22.5 10.8175 22.5 8.75V7.5H55V8.75C55 10.8175 56.6825 12.5 58.75 12.5H61.25C63.3175 12.5 65 10.8175 65 8.75V7.5H68.9975L73.4425 27.5H55V25H57.8512L54.7262 12.5H22.7738L19.6488 25H22.5V27.5H4.05875L8.5025 7.5ZM22.5 30V42.5H7.5V30H22.5ZM7.5 60H22.5V75H7.5V60Z" fill="#16322E"/>
</svg>
