<svg width="88" height="88" viewBox="0 0 88 88" fill="none" xmlns="http://www.w3.org/2000/svg">
<path d="M46.7522 42.1875H40.4353C34.4236 42.1875 29.5312 47.0798 29.5312 53.0916C29.5312 54.5231 29.8083 55.9209 30.3525 57.2442L30.7111 58.1147H31.0528C31.4859 56.243 33.1537 54.8438 35.1562 54.8438H36.5625C36.5625 53.2898 37.8211 52.0313 39.375 52.0313C42.1256 53.865 45.3572 54.8423 48.6633 54.8438H50.625H52.0312C54.0338 54.8438 55.7016 56.243 56.1333 58.1147H56.475L56.8336 57.2442C57.3792 55.9209 57.6562 54.5231 57.6562 53.0916C57.6562 47.0798 52.7639 42.1875 46.7522 42.1875Z" fill="#D2CBFF"/>
<path d="M49.2188 26.7188C46.8928 26.7188 45 24.8259 45 22.5C45 20.1741 46.8928 18.2812 49.2188 18.2812C51.5447 18.2812 53.4375 20.1741 53.4375 22.5C53.4375 24.8259 51.5447 26.7188 49.2188 26.7188Z" fill="#D2CBFF"/>
<path d="M51.2381 71.1267L48.9726 70.56L48.6478 69.2634C50.2847 68.2608 51.494 66.6281 51.8892 64.6889H52.0312C55.1334 64.6889 57.6562 62.1661 57.6562 59.0639C57.6562 55.9617 55.1334 53.4389 52.0312 53.4389H50.625H48.6633C45.6244 53.4389 42.6825 52.5473 40.1555 50.8627L39.8011 50.625H39.375C37.5441 50.625 35.9972 51.8048 35.415 53.4375H35.1562C32.0541 53.4375 29.5312 55.9603 29.5312 59.0625C29.5312 62.1647 32.0541 64.6875 35.1562 64.6875H35.2983C35.6934 66.6281 36.9028 68.2608 38.5397 69.262L38.2162 70.5572L35.9648 71.1169C30.5212 72.4725 26.7188 77.3353 26.7188 82.9448V87.1875H60.4687V82.9702C60.4786 77.3606 56.6831 72.4908 51.2381 71.1267ZM54.8437 59.0625C54.8437 60.6136 53.5823 61.875 52.0312 61.875V56.25C53.5823 56.25 54.8437 57.5114 54.8437 59.0625ZM32.3437 59.0625C32.3437 57.5114 33.6052 56.25 35.1562 56.25V61.875C33.6052 61.875 32.3437 60.6136 32.3437 59.0625ZM41.7375 77.2116L39.0431 79.9059L38.3231 73.4302L38.8097 73.3092L41.7375 77.2116ZM43.5937 79.3322L48.6366 84.375H38.5509L43.5937 79.3322ZM45.45 77.2116L48.3764 73.3092L48.863 73.4316L48.143 79.9059L45.45 77.2116ZM37.9687 54.8438C37.9687 54.1884 38.4202 53.6358 39.0277 53.4811C41.9203 55.2937 45.2391 56.25 48.6633 56.25H49.2187V63.2812C49.2187 65.6072 47.3259 67.5 45 67.5H42.1875C39.8616 67.5 37.9687 65.6072 37.9687 63.2812V54.8438ZM42.1875 70.3125H45C45.3375 70.3125 45.6609 70.2591 45.9858 70.2127L46.2853 71.4108L43.5937 74.9995L40.9022 71.4108L41.2017 70.2127C41.5266 70.2591 41.85 70.3125 42.1875 70.3125ZM29.5312 82.9448C29.5312 79.0088 31.9767 75.5761 35.5809 74.2078L36.7102 84.375H29.5312V82.9448ZM57.6562 84.375H50.4773L51.6051 74.2148C55.2164 75.5859 57.6619 79.027 57.6562 82.9688V84.375Z" fill="#16322E"/>
<path d="M71.7188 28.125H74.5312C75.3061 28.125 75.9375 28.7564 75.9375 29.5312H78.75C78.75 27.2053 76.8572 25.3125 74.5312 25.3125V22.5H71.7188V25.3125C69.3928 25.3125 67.5 27.2053 67.5 29.5312C67.5 31.8572 69.3928 33.75 71.7188 33.75H74.5312C75.3061 33.75 75.9375 34.3814 75.9375 35.1562C75.9375 35.9311 75.3061 36.5625 74.5312 36.5625H71.7188C70.9439 36.5625 70.3125 35.9311 70.3125 35.1562H67.5C67.5 37.4822 69.3928 39.375 71.7188 39.375V42.1875H74.5312V39.375C76.8572 39.375 78.75 37.4822 78.75 35.1562C78.75 32.8303 76.8572 30.9375 74.5312 30.9375H71.7188C70.9439 30.9375 70.3125 30.3061 70.3125 29.5312C70.3125 28.7564 70.9439 28.125 71.7188 28.125Z" fill="#16322E"/>
<path d="M84.375 25.3125L79.2 18.4134L81.3909 16.2225C82.4091 15.2058 82.9688 13.853 82.9688 12.4158C82.9688 9.44578 80.5542 7.03125 77.5842 7.03125H74.2894C72.1702 7.03125 70.3505 8.27297 69.473 10.0575C69.113 9.92672 68.7291 9.84375 68.3241 9.84375H66.6759C64.8042 9.84375 63.2812 11.3667 63.2812 13.2384C63.2812 14.1455 63.6342 14.9977 64.2755 15.6389L67.05 18.4134L61.875 25.3125C60.0609 27.7313 59.0625 30.728 59.0625 33.75C59.0625 41.5041 65.3709 47.8125 73.125 47.8125C80.8791 47.8125 87.1875 41.5041 87.1875 33.75C87.1875 30.728 86.1891 27.7313 84.375 25.3125ZM66.0938 13.2384C66.0938 12.9178 66.3553 12.6562 66.6759 12.6562H68.3241C68.6447 12.6562 68.9062 12.9178 68.9062 13.2384V14.0625H71.7188V13.2384V12.4158C71.7188 10.9969 72.8719 9.84375 74.2908 9.84375H77.5856C79.0031 9.84375 80.1562 10.9969 80.1562 12.4158C80.1562 13.102 79.8891 13.7475 79.4025 14.2341L76.7616 16.875H69.4884L66.2639 13.6505C66.1556 13.5422 66.0938 13.3917 66.0938 13.2384ZM73.125 45C66.922 45 61.875 39.953 61.875 33.75C61.875 31.3327 62.6737 28.935 64.125 27L69.6094 19.6875H76.6406L82.125 27C83.5763 28.9336 84.375 31.3327 84.375 33.75C84.375 39.953 79.328 45 73.125 45Z" fill="#16322E"/>
<path d="M46.4062 5.38453C46.4062 3.96563 47.5594 2.8125 48.9783 2.8125H49.4606C50.8781 2.8125 52.0312 3.96563 52.0312 5.38453C52.0312 6.07078 51.7641 6.71625 51.2775 7.20281L47.8125 10.6678V15.4688H50.625V11.8322L53.2659 9.19125C54.2841 8.17453 54.8438 6.82172 54.8438 5.38453C54.8438 2.41453 52.4292 0 49.4592 0H48.9769C46.0083 0 43.5938 2.41453 43.5938 5.38453V5.625H46.4062V5.38453Z" fill="#16322E"/>
<path d="M30.9009 47.8125C31.4902 46.7522 32.2566 45.8058 33.1509 45H26.7188V30.9375H15.4688V45H7.03125V28.125H35.1562V43.5572C36.0267 43.0734 36.9731 42.7106 37.9688 42.4786V27.9253C40.3875 27.2967 42.1875 25.1128 42.1875 22.5V21.7631L24.4561 9.48794C22.4705 8.11262 19.717 8.11262 17.73 9.48794L0 21.7659V22.5028C0 25.1156 1.8 27.2981 4.21875 27.9267V47.8125H30.9009ZM18.2812 33.75H23.9062V45H18.2812V33.75ZM2.89547 23.1806L19.3317 11.7998C20.3737 11.0784 21.8152 11.0784 22.8558 11.7998L39.292 23.1792C38.9883 24.404 37.8816 25.3125 36.5639 25.3125H5.62359C4.30734 25.3125 3.19922 24.404 2.89547 23.1806Z" fill="#16322E"/>
</svg>
